<?xml version="1.0" encoding="UTF-8" standalone="no"?>
<!-- Creator: CorelDRAW -->

<svg
   xmlns:dc="http://purl.org/dc/elements/1.1/"
   xmlns:cc="http://creativecommons.org/ns#"
   xmlns:rdf="http://www.w3.org/1999/02/22-rdf-syntax-ns#"
   xmlns:svg="http://www.w3.org/2000/svg"
   xmlns="http://www.w3.org/2000/svg"
   xmlns:sodipodi="http://sodipodi.sourceforge.net/DTD/sodipodi-0.dtd"
   xmlns:inkscape="http://www.inkscape.org/namespaces/inkscape"
   xml:space="preserve"
   width="49.5354mm"
   height="67.0491mm"
   style="shape-rendering:geometricPrecision; text-rendering:geometricPrecision; image-rendering:optimizeQuality; fill-rule:evenodd; clip-rule:evenodd"
   viewBox="0 0 57.5983 77.9627"
   id="svg2"
   version="1.1"
   inkscape:version="0.46+devel 22040"
   sodipodi:docname="1.svg"><metadata
   id="metadata13"><rdf:RDF><cc:Work
       rdf:about=""><dc:format>image/svg+xml</dc:format><dc:type
         rdf:resource="http://purl.org/dc/dcmitype/StillImage" /><dc:title></dc:title></cc:Work></rdf:RDF></metadata><sodipodi:namedview
   pagecolor="#ffffff"
   bordercolor="#666666"
   borderopacity="1"
   objecttolerance="10"
   gridtolerance="10"
   guidetolerance="10"
   inkscape:pageopacity="0"
   inkscape:pageshadow="2"
   inkscape:window-width="1280"
   inkscape:window-height="753"
   id="namedview11"
   showgrid="false"
   inkscape:zoom="0.99336817"
   inkscape:cx="87.759567"
   inkscape:cy="118.78778"
   inkscape:window-x="-4"
   inkscape:window-y="-4"
   inkscape:window-maximized="1"
   inkscape:current-layer="svg2" />
 <defs
   id="defs4"><inkscape:perspective
   sodipodi:type="inkscape:persp3d"
   inkscape:vp_x="0 : 118.78778 : 1"
   inkscape:vp_y="0 : 1000 : 0"
   inkscape:vp_z="175.51913 : 118.78778 : 1"
   inkscape:persp3d-origin="87.759567 : 79.191854 : 1"
   id="perspective15" />
  <style
   type="text/css"
   id="style6">
   
    .fil0 {fill:#1F1A17}
   
  </style>
 </defs>
 <g
   id="Layer_x0020_1">
  <metadata
   id="CorelCorpID_0Corel-Layer" />
  <path
   id="path2868"
   class="fil0"
   d="M24.4304 62.3259l-6.03036 0.0106975 0 8.75473 6.02175 0 0 6.87139 8.75473 0 0 -6.87139 6.02175 0c0,-2.91099 0,-5.85048 0,-8.75473l-6.01106 -0.0106975 -0.0106975 -5.05933c13.8249,-2.10973 24.4218,-14.0545 24.4218,-28.4674 0,-15.9012 -12.8979,-28.7991 -28.7991,-28.7991 -15.9012,0 -28.7991,12.8979 -28.7991,28.7991 0,14.4127 10.5974,26.3541 24.4218,28.4641l0.0086045 5.06258zm-1.78136 -19.3342c0.102789,-2.78018 0.0731382,-5.24247 -0.0659291,-7.07964 -0.213019,-2.816 -0.226275,-2.62798 -0.915681,-3.17704 -1.93973,-1.54451 -3.41029,-2.91053 -4.58899,-5.05061 -0.904751,-1.64288 -1.43242,-3.42552 -1.52916,-5.25014 -0.0851148,-1.60555 -0.0140695,-2.17287 0.955913,-3.38494 0.196276,-0.245228 1.06847,-1.0687 1.06893,-1.1973 0.00360459,-1.3687 1.26416,-2.7396 2.49449,-3.3568 0.0060464,-0.751963 0.337087,-1.84822 0.730685,-2.44438 0.496503,-0.752312 1.65834,-1.40509 2.55809,-1.57974 0.382784,-0.0744173 2.40786,-1.28172 3.28529,-1.55148 1.29033,-0.396737 1.53928,-1.46032 3.81016,-1.96915l1.03824 -0.23267c0.38011,0.334296 2.7417,2.46379 2.95367,2.51693 1.01777,0.254879 0.902891,1.03835 0.902891,2.38298l0 1.06707c2.64763,1.29521 1.58346,2.10287 2.25031,3.87191 0.654174,1.73532 2.46647,1.99903 0.86324,5.17142 -1.18603,2.34682 -1.5016,4.50666 -2.09636,8.05637 -1.23114,7.34859 0.0868589,12.0283 1.99078,20.1249l-0.00162788 0.000348831 0.192671 0.705104c8.34078,-3.73156 14.155,-12.103 14.155,-21.8289 0,-13.1976 -10.7049,-23.9025 -23.9025,-23.9025 -13.1976,0 -23.9025,10.7049 -23.9025,23.9025 0,10.8704 7.26301,20.0482 17.1989,22.9475 0.276042,-2.89879 0.446853,-5.86013 0.553479,-8.74171zm14.206 8.15951l0.229066 0.000116277c-0.370691,-1.35707 -0.677779,-2.72611 -0.991959,-4.09783 -0.766963,-3.10297 -1.46404,-6.18129 -1.7216,-9.16402l0 0.000116277c-0.202206,-1.54834 -0.210461,-5.54967 -0.013837,-6.81441 0.076394,-0.491387 0.266972,-1.80636 0.423597,-2.851 0.315343,-2.10264 0.850683,-3.76517 1.42102,-5.12061 0.260577,-0.795684 0.535456,-1.41009 0.871845,-2.07554 1.14382,-2.26333 -0.17209,-1.91229 -0.930216,-3.92342 -0.918356,-2.43589 0.571269,-2.02357 -1.91555,-3.24018l-0.438248 -0.214415 0 -0.0244182c-0.169997,-0.0539525 -0.343482,-0.123719 -0.488015,-0.199648 -0.770451,-0.404993 -2.44903,-0.423597 -3.04402,-0.0338366l-0.385226 0.252321 0.670337 -0.0112789c0.176392,0.0979052 0.49348,0.234066 0.66336,0.23674 0.417086,0.00662779 1.4037,0.953471 1.49649,1.41974 0.0859287,0.430923 -0.610803,1.45963 -1.1723,1.82753 -0.545572,0.357436 -0.761498,-0.0376738 -0.214764,-0.568711 0.770451,-0.748359 0.797311,-1.10254 0.130928,-1.72416 -0.452434,-0.422086 -0.691964,-0.532432 -1.328,-0.611966 -0.787195,-0.0982541 -1.43521,0.0552316 -1.72939,0.409528 -0.20802,0.250693 0.216973,1.57416 0.654058,2.03717 0.331041,0.350691 0.568013,0.446504 1.95194,0.789753 1.13951,0.282669 2.12159,0.291623 3.16134,0.0290693 1.6452,-0.415341 2.01136,-0.125928 1.06196,0.839055 -0.319413,0.324645 -0.758475,0.917774 -0.975448,1.318 -0.664872,1.22579 -0.118137,2.19461 0.476271,3.60691 -0.446504,0.761033 -0.759173,1.24044 -1.52625,2.07706 -0.553827,0.603943 -0.896612,1.11103 -0.97568,1.44323 -0.181508,0.762312 0.00686034,6.80453 0.0911612,9.14402 0.205927,5.71397 1.64055,11.6497 4.54713,15.2451zm-3.06588 -38.0234l-0.00976727 -2.511c-0.203368,-0.114533 -0.520223,-0.373133 -0.79173,-0.501968 -0.566967,-0.269298 -1.03091,-0.552316 -1.03091,-0.629059 0,-0.284414 -0.809404,-0.681034 -1.28777,0.0489526 -0.632779,0.965564 0.958239,1.87601 1.27126,2.70937 0.203834,0.542781 1.08684,0.441736 1.48137,0.740685 0.195345,0.147904 0.299413,0.211392 0.367552,0.143021zm-6.83267 -2.67356l-0.637663 0.273367c0.352552,-0.0120928 1.12242,-0.123602 1.04905,0.116975 -0.154416,0.506386 -0.466155,0.275228 -0.556037,0.633128 -0.145579,0.580455 0.733824,0.919519 0.763591,1.41928 0.00941844,0.158602 -0.398714,0.628593 -0.379761,0.704174 0.0188369,0.0755801 0.473364,-0.109882 0.482898,-0.0720917 0.0131393,0.052906 1.08277,0.256158 2.05775,-0.343715l0 0.000116277c0.81952,-0.504293 1.04521,-0.282321 0.919984,-0.790335 -0.152207,-0.617431 -0.516154,-1.14021 -1.1923,-1.71264 -0.7658,-0.648128 -0.872775,-0.526851 -2.50751,-0.228252zm-9.57309 13.7914c0.341738,1.38823 0.987076,2.73704 1.83392,3.91551 1.73346,-0.394295 1.7909,-0.728127 3.28401,0.609524 1.98776,1.78055 3.10192,2.42112 4.21144,2.42112 0.375575,0 0.734522,0.0761614 0.809869,0.171857 0.0745336,0.0944169 0.173136,1.03766 0.21895,2.09613 0.0911612,2.09985 0.385109,3.81156 1.1451,6.66639 0.497666,1.86915 1.82113,5.69315 1.93206,5.58223 0.0327901,-0.0327901 -0.00476736,-0.637314 -0.0834869,-1.34335l0.000116277 -0.000116277c-0.131044,-1.17417 -0.392667,-7.78695 -0.333599,-8.43113 0.0636035,-0.693592 0.127556,-2.45275 0.546502,-3.06995 0.176741,-0.26046 0.321273,-0.519874 0.321273,-0.576501 0,-0.260112 -0.549409,-0.673476 -1.26963,-0.955216 -1.06707,-0.417318 -1.16207,-1.01254 -1.78927,-1.82264 -0.587431,-0.758707 -0.468015,-1.64311 -1.18172,-2.12299l-0.460573 -0.309762 -0.530456 0.270577c-1.19916,0.611733 -3.75947,0.236275 -5.30072,-0.777428 -1.16172,-0.764056 -2.40984,-1.42951 -3.35378,-2.32426zm9.41239 1.01359c0.322087,-0.146742 0.35011,-0.230112 0.35011,-1.03777 0,-1.76788 -0.694988,-1.70218 -2.2688,-3.20634 -1.12951,-1.07952 -5.07212,-2.3381 -5.11526,-1.85555 -0.00255809,0.0291855 2.24787,1.37288 2.05043,1.64858 -0.306041,0.427783 -0.200462,0.275228 -0.0924402,1.06091 0.0786033,0.571036 0.16709,0.722429 0.59185,1.01103 0.274763,0.186741 0.553595,0.339413 0.619756,0.339413 0.0660453,0 0.293134,0.286739 0.632082,0.405574 0.315343,0.110579 1.10626,0.259995 1.56509,0.973471 0.355924,0.553479 1.088,0.624756 1.13091,0.694057 0.0987192,0.159648 0.114649,0.158718 0.53627,-0.0333715zm2.68158 -2.51809c0.656849,-0.339645 0.967425,-0.852776 0.967425,-1.59811 0,-0.631617 -0.0465108,-0.714406 -0.927774,-1.65334 -0.55313,-0.589176 -2.85948,-3.0932 -3.48808,-3.24436 -0.111975,-0.02686 -3.66761,-1.18405 -3.96016,-0.899635 -0.178369,0.173485 2.73995,1.10952 2.88134,1.55893 0.168485,0.535572 -0.361738,0.267553 -0.0731382,1.02696 0.155927,0.409993 0.344529,0.48034 0.344645,0.989285 0.000232554,2.75832 1.59369,1.29463 2.24217,3.0032 0.440922,1.16172 1.29544,1.18847 2.01357,0.817195l0 -0.000116277z"
   nodetypes="csssssssssssssscccscccsssssssccccssssssscccssssssssssssccssssccccssssssscccssccccccsssssssccssssssssssscccssssssssscccssssssssssscccccssssssscc" />
 </g>
</svg>